{"title":"Choose.2011.BRRip.XviD.AC3-PRESTiGE","uid":6837472,"size":1897043804,"categoryP":"video","categoryS":"movies","magnet":"?xt=urn:btih:e2fb0c8d8a6adc74e0f70c3540cff94474e68cfb&amp;dn=Choose.2011.BRRip.XviD.AC3-PRESTiGE&amp;tr=udp%3A%2F%2Ftracker.openbittorrent.com%3A80&amp;tr=udp%3A%2F%2Fopen.demonii.com%3A1337&amp;tr=udp%3A%2F%2Ftracker.coppersurfer.tk%3A6969&amp;tr=udp%3A%2F%2Fexodus.desync.com%3A6969","seeders":0,"leechers":2,"uploader":"sceneline","files":6,"time":1322055917,"description":"- &lt;a href=&quot;\nhttp://www.Speed.Cd&quot; rel=&quot;nofollow&quot; target=&quot;_NEW&quot;&gt;\nhttp://www.Speed.Cd&lt;/a&gt;      fast  and The Hottest Private Tracker on the net\n\n   signup is open now\n\nPlease Seed back to make the speed Faster!!!\n\n------------------nfo--------------------------\n-[pre][img]http://www.3dsbs.com/uploads/posts/2011-08/1314814898_w1lq.jpg[/img]   \n            \n*******************************************************************************\n                      Choose.2011.BRRip.XviD.AC3-PRESTiGE\n*******************************************************************************\n\n-------------------------------------------------------------------------------\n                              General Information\n-------------------------------------------------------------------------------\n\nTiTLE............: Choose.2011.BRRip.XviD.AC3-PRESTiGE\n\niMDB.............: http://www.imdb.com/title/tt1325723/\n\nGENRE............: Crime | Drama | Horror\n\nLANGUAGE.........: English \n\nFORMAT...........: AVi\n\nSOURCE...........: 720p.x264-sUN MANY THANKS!!!\n\nFiLE SiZE........: 1.72 GB\n\nSAMPLE iNCLUDED..: Yes\n\nSUBS.............: NoNE\n\nDURATiON.........: 1h 26mn\n\nENCODED by.......: [b][color=maroon]akosipalos[/color][/b]\n\n\nViDEO iNFO:\n\nID                               : 0\nFormat                           : MPEG-4 Visual\nFormat profile                   : Advanced Simple@L5\nFormat settings, BVOP            : 2\nFormat settings, QPel            : No\nFormat settings, GMC             : No warppoints\nFormat settings, Matrix          : Default (H.263)\nCodec ID                         : XVID\nCodec ID/Hint                    : XviD\nDuration                         : 1h 26mn\nBit rate                         : 2 404 Kbps\nWidth                            : 720 pixels\nHeight                           : 304 pixels\nDisplay aspect ratio             : 2.35:1\nFrame rate                       : 23.976 fps\nColor space                      : YUV\nChroma subsampling               : 4:2:0\nBit depth                        : 8 bits\nScan type                        : Progressive\nCompression mode                 : Lossy\nBits/(Pixel*Frame)               : 0.458\nStream size                      : 1.45 GiB (84%)\nWriting library                  : XviD 1.2.1 (UTC 2008-12-04)\n\n\nAUDiO iNFO:\n\nID                               : 1\nFormat                           : AC-3\nFormat/Info                      : Audio Coding 3\nMode extension                   : CM (complete main)\nCodec ID                         : 2000\nDuration                         : 1h 26mn\nBit rate mode                    : Constant\nBit rate                         : 448 Kbps\nChannel(s)                       : 2 channels\nChannel positions                : Front: L R\nSampling rate                    : 48.0 KHz\nBit depth                        : 16 bits\nCompression mode                 : Lossy\nStream size                      : 277 MiB (16%)\nAlignment                        : Aligned on interleaves\nInterleave, duration             : 64 ms (1.53 video frames)\nInterleave, preload duration     : 192 ms\n\n\n-------------------------------------------------------------------------------\n                                 PLOT:\n-------------------------------------------------------------------------------\n\n\nA journalism student tracks a killer with the help of her detective father and a therapist. \n\n \n-------------------------------------------------------------------------------\n                                 CAST:\n-------------------------------------------------------------------------------\n\n\nKatheryn Winnick \n\nKevin Pollak \n\nNicholas Tucci\n\n\n-------------------------------------------------------------------------------\n                               SCREENS:\n-------------------------------------------------------------------------------\n\n\n\n-------------------------------------------------------------------------------\n                             Release Notes\n-------------------------------------------------------------------------------\n\nWE DONT RELEASE EVERYTHING TO OTHERS SITES YOU WANT MORE OF OUR STUFF COME FIND US AT .......\n\nWE ARE LOOKING FOR SUPPLIERS BLURAY CAM R5 PRE RETAIL DVD GOT SOMETHING WE MIGHT LIKE WHEN YOU FIND US TELL US.......\n\n\n\nENCODER'S - ANYTHING AT ALL EMAIL US AT..... &lt;a class=&quot;__cf_email__&quot; href=&quot;/cdn-cgi/l/email-protection&quot; data-cfemail=&quot;3545475046415c5250755d40465d58545c591b5850&quot;&gt;[email&amp;#160;protected]&lt;/a&gt;&lt;script cf-hash='f9e31' type=&quot;text/javascript&quot;&gt;\n/* &lt;![CDATA[ */!function(){try{var t=&quot;currentScript&quot;in document?document.currentScript:function(){for(var t=document.getElementsByTagName(&quot;script&quot;),e=t.length;e--;)if(t[e].getAttribute(&quot;cf-hash&quot;))return t[e]}();if(t&amp;&amp;t.previousSibling){var e,r,n,i,c=t.previousSibling,a=c.getAttribute(&quot;data-cfemail&quot;);if(a){for(e=&quot;&quot;,r=parseInt(a.substr(0,2),16),n=2;a.length-n;n+=2)i=parseInt(a.substr(n,2),16)^r,e+=String.fromCharCode(i);e=document.createTextNode(e),c.parentNode.replaceChild(e,c)}}}catch(u){}}();/* ]]&gt; */&lt;/script&gt;\n\n** ** ** ** ** ** ** ** **\n\nPRESTiGE is the level of respect at which one is regarded by others....RIzE Above Or Sink Below...\n\n\n-------------------------------------------------------------------------------\n                                 GREETZ:\n-------------------------------------------------------------------------------\n\n\n[b]| Twisted | Bigguy | CTFX | Whitestag13 | Jungledave | PA4U2C | mtyy | floridajoe | marsby | cld | Stortrapp | Stoner | Rock | Ulap | rizal | mannilim | musikera | centserick2 | AMB | RiZAL Team RG | rock3r | canislupus | sickie | fun2knytz and To All Encoders Past And Present...[/b]\n\n\n\n[b][color=red]PRESTiGE[/color] is the level of respect at which one is regarded by others....RIzE Above Or Sink Below...[/b]\n\n\n-------------------------------------------------------------------------------\nGenerated with Cool NFO Creator - http://fly.to/coolbeans\n-------------------------------------------------------------------------------\n","torrent":{"xt":"urn:btih:e2fb0c8d8a6adc74e0f70c3540cff94474e68cfb","amp;dn":"Choose.2011.BRRip.XviD.AC3-PRESTiGE","amp;tr":["udp%3A%2F%2Ftracker.openbittorrent.com%3A80","udp%3A%2F%2Fopen.demonii.com%3A1337","udp%3A%2F%2Ftracker.coppersurfer.tk%3A6969","udp%3A%2F%2Fexodus.desync.com%3A6969"],"infoHash":"e2fb0c8d8a6adc74e0f70c3540cff94474e68cfb","infoHashBuffer":{"type":"Buffer","data":[226,251,12,141,138,106,220,116,224,247,12,53,64,207,249,68,116,230,140,251]},"announce":[],"urlList":[]}}